<svg id="sequence-logo" xmlns="http://www.w3.org/2000/svg" viewBox="0 0 297.7 36.4">
  <style>
    .sequence-logo-letters {
    fill-rule: evenodd;
    clip-rule: evenodd;
    }
  </style>
  <path class="sequence-logo-letters" d="M0.2,31l1.8-3.1c0.4-0.7,1.3-0.7,1.7-0.4c0.3,0.2,4.3,3.1,7.6,3.1c2.6,0,4.6-1.7,4.6-3.9c0-2.6-2.2-4.3-6.4-6.1  c-4.8-1.9-9.5-5-9.5-10.9C0.1,5.2,3.4,0,11.5,0c5.2,0,9.1,2.6,10.1,3.4c0.5,0.3,0.7,1.2,0.3,1.7L20,7.9c-0.4,0.6-1.2,1-1.8,0.6  c-0.4-0.3-4.2-2.8-7-2.8c-2.9,0-4.4,1.9-4.4,3.5c0,2.4,1.9,4,6,5.7c4.9,2,10.6,4.9,10.6,11.4c0,5.2-4.5,10-11.6,10  c-6.4,0-10.1-3-11.1-3.9C0,32-0.2,31.8,0.2,31z M33.5,34.9c0,0.5,0.4,1,1,1H55c0.6,0,1-0.5,1-1v-4.1c0-0.5-0.4-1-1-1H40V21h12.5 c0.5,0,1-0.4,1-1v-4.2c0-0.5-0.5-1-1-1H40V6.6h15c0.6,0,1-0.5,1-1V1.5c0-0.5-0.4-1-1-1H34.4c-0.6,0-1,0.5-1,1V34.9z M111,22.5 c0,7.7,6.1,13.9,14.1,13.9c8,0,14.1-6.2,14.1-13.9v-21c0-0.5-0.5-1-1-1h-4.8c-0.6,0-1,0.5-1,1v20.7c0,4.2-3,7.6-7.4,7.6 c-4.4,0-7.3-3.4-7.3-7.7V1.5c0-0.5-0.4-1-1-1H112c-0.5,0-1,0.5-1,1V22.5z M151.6,34.9c0,0.5,0.4,1,1,1h20.6c0.6,0,1-0.5,1-1v-4.1  c0-0.5-0.4-1-1-1h-15V21h12.5c0.5,0,1-0.4,1-1v-4.2c0-0.5-0.5-1-1-1h-12.5V6.6h15c0.6,0,1-0.5,1-1V1.5c0-0.5-0.4-1-1-1h-20.6  c-0.6,0-1,0.5-1,1V34.9z M223.2,18.3c0,10.1,8.1,18.2,18.3,18.2c4.5,0,8.8-1.6,12.3-4.9c0.4-0.4,0.5-1,0.1-1.4l-3.1-3.2 c-0.3-0.3-0.9-0.4-1.3,0c-2.1,1.7-4.7,2.9-7.7,2.9c-6.5,0-11.3-5.4-11.3-11.7c0-6.4,4.8-11.8,11.3-11.8c2.8,0,5.7,1.1,7.8,3 c0.4,0.4,0.9,0.4,1.3,0l3.1-3.2c0.4-0.4,0.4-1-0.1-1.4c-3.4-3.1-7.1-4.7-12.2-4.7C231.4,0,223.2,8.1,223.2,18.3z M263.2,6.6h33.5  c0.5,0,1-0.4,1-1V1.5c0-0.5-0.4-1-1-1h-33.5c-0.5,0-1,0.4-1,1v4.1C262.3,6.1,262.7,6.6,263.2,6.6z M263.2,21.2h18.1c0.5,0,1-0.4,1-1 v-4.1c0-0.5-0.4-1-1-1h-18.1c-0.5,0-1,0.4-1,1v4.1C262.3,20.8,262.7,21.2,263.2,21.2z M272,35.9h24.7c0.5,0,1-0.4,1-1v-4.1  c0-0.5-0.4-1-1-1H272c-0.5,0-1,0.4-1,1v4.1C271,35.5,271.5,35.9,272,35.9z M95.1,30.3c2-1.9,5.1-5.7,5.1-12.1C100.2,8.1,92.1,0,82,0 C71.9,0,63.8,8.1,63.8,18.3c0,5.2,2.1,9.9,5.6,13.2h0c5,4.5,9.1,5,17.9,5h15c0.5,0,1-0.4,1-1v-4.1c0-0.5-0.4-1-1-1H95.1L95.1,30.3z M82,6.6c6.4,0,11.6,5.3,11.6,11.7c0,6.4-5.3,11.6-11.6,11.6c-6.4,0-11.6-5.2-11.6-11.6C70.4,11.9,75.6,6.6,82,6.6z M207.9,1.5v22.4 l-18.3-23c-0.2-0.2-0.5-0.4-0.8-0.4h-3.4c-0.5,0-1,0.4-1,1c0,11.2,0,22.3,0,33.5c0,0.5,0.4,1,1,1h4.7c0.5,0,1-0.4,1-1V12.5l18.3,23  c0.2,0.2,0.5,0.4,0.8,0.4c1.1,0,2.2,0,3.4,0c0.5,0,1-0.4,1-1c0-11.1,0-22.3,0-33.5c0-0.5-0.4-1-1-1h-4.7  C208.3,0.5,207.9,0.9,207.9,1.5z"></path>
</svg>