<?xml version="1.0" encoding="utf-8"?>
<!-- Generator: Adobe Illustrator 26.0.2, SVG Export Plug-In . SVG Version: 6.00 Build 0)  -->
<svg version="1.1" xmlns="http://www.w3.org/2000/svg" xmlns:xlink="http://www.w3.org/1999/xlink" x="0px" y="0px"
	 viewBox="0 0 238.4 224.7" style="enable-background:new 0 0 238.4 224.7;" xml:space="preserve">
<style type="text/css">
	.st0{fill:#20242B;}
	.st1{fill:#58BBAA;}
	.st2{fill:#20252D;}
	.st3{fill:#FFFFFF;}
</style>
<g id="Back_blocks">
	<g>
		<path class="st0" d="M119,113.8c-0.2,0-0.5-0.1-0.7-0.2L60.2,85.3c-0.5-0.3-0.8-0.8-0.8-1.3c0-0.6,0.3-1.1,0.8-1.3l58.1-28.3
			c0.4-0.2,0.9-0.2,1.3,0l58.1,28.3c0.5,0.3,0.8,0.8,0.8,1.3c0,0.6-0.3,1.1-0.8,1.3l-58.1,28.3C119.4,113.7,119.2,113.8,119,113.8z
			 M64.3,83.9l54.6,26.7l54.6-26.7L119,57.3L64.3,83.9z"/>
		<path class="st0" d="M119,178.9c-0.2,0-0.5-0.1-0.7-0.2l-58.1-28.3c-0.5-0.3-0.8-0.8-0.8-1.3V83.9c0-0.8,0.7-1.5,1.5-1.5
			c0.8,0,1.5,0.7,1.5,1.5v64.2l56.6,27.6l56.6-27.6V83.9c0-0.8,0.7-1.5,1.5-1.5s1.5,0.7,1.5,1.5V149c0,0.6-0.3,1.1-0.8,1.3
			l-58.1,28.3C119.4,178.8,119.2,178.9,119,178.9z"/>
		<path class="st0" d="M119,178.9c-0.8,0-1.5-0.7-1.5-1.5v-65.1c0-0.8,0.7-1.5,1.5-1.5c0.8,0,1.5,0.7,1.5,1.5v65.1
			C120.5,178.2,119.8,178.9,119,178.9z"/>
	</g>
	<g>
		<path class="st0" d="M119,190.8c-0.2,0-0.5-0.1-0.7-0.2l-30.2-14.8c-0.5-0.3-0.8-0.8-0.8-1.3c0-0.6,0.3-1.1,0.8-1.3l11.2-5.5
			c0.7-0.4,1.6-0.1,2,0.7c0.4,0.7,0.1,1.6-0.7,2l-8.4,4.1l26.8,13.1l26.8-13.1l-8.4-4.1c-0.7-0.4-1.1-1.3-0.7-2
			c0.4-0.7,1.3-1.1,2-0.7l11.2,5.5c0.5,0.3,0.8,0.8,0.8,1.3c0,0.6-0.3,1.1-0.8,1.3l-30.2,14.8C119.4,190.8,119.2,190.8,119,190.8z"
			/>
		<path class="st0" d="M119,224.7c-0.2,0-0.5-0.1-0.7-0.2l-30.2-14.7c-0.5-0.3-0.8-0.8-0.8-1.3v-33.9c0-0.8,0.7-1.5,1.5-1.5
			c0.8,0,1.5,0.7,1.5,1.5v32.9l28.7,14l28.7-14v-32.9c0-0.8,0.7-1.5,1.5-1.5c0.8,0,1.5,0.7,1.5,1.5v33.9c0,0.6-0.3,1.1-0.8,1.3
			l-30.2,14.7C119.4,224.7,119.2,224.7,119,224.7z"/>
		<path class="st0" d="M119,224.7c-0.8,0-1.5-0.7-1.5-1.5v-33.9c0-0.8,0.7-1.5,1.5-1.5c0.8,0,1.5,0.7,1.5,1.5v33.9
			C120.5,224,119.8,224.7,119,224.7z"/>
	</g>
	<g>
		<path class="st0" d="M52.7,81.4c-0.2,0-0.5-0.1-0.7-0.2l-18.3-8.9c-0.5-0.3-0.8-0.8-0.8-1.3c0-0.6,0.3-1.1,0.8-1.3l18.3-8.9
			c0.4-0.2,0.9-0.2,1.3,0l18.3,8.9c0.5,0.3,0.8,0.8,0.8,1.3c0,0.6-0.3,1.1-0.8,1.3l-18.3,8.9C53.2,81.4,53,81.4,52.7,81.4z M37.9,71
			l14.9,7.3L67.6,71l-14.9-7.3L37.9,71z"/>
		<path class="st0" d="M52.7,102c-0.2,0-0.5-0.1-0.7-0.2l-18.3-8.9c-0.5-0.3-0.8-0.8-0.8-1.3V71c0-0.8,0.7-1.5,1.5-1.5
			c0.8,0,1.5,0.7,1.5,1.5v19.6l16.8,8.2l7.5-3.7c0.7-0.4,1.6-0.1,2,0.7c0.4,0.7,0.1,1.6-0.7,2l-8.2,4C53.2,101.9,53,102,52.7,102z"
			/>
		<path class="st0" d="M71,80.5c-0.8,0-1.5-0.7-1.5-1.5v-8c0-0.8,0.7-1.5,1.5-1.5s1.5,0.7,1.5,1.5v8C72.5,79.8,71.9,80.5,71,80.5z"
			/>
		<path class="st0" d="M52.7,102c-0.8,0-1.5-0.7-1.5-1.5V79.9c0-0.8,0.7-1.5,1.5-1.5c0.8,0,1.5,0.7,1.5,1.5v20.5
			C54.2,101.3,53.6,102,52.7,102z"/>
	</g>
	<g>
		<path class="st0" d="M186.6,81.3l-18.3-8.9c-0.5-0.3-0.8-0.8-0.8-1.3c0-0.6,0.3-1.1,0.8-1.3l18.3-8.9c0.4-0.2,0.9-0.2,1.3,0
			l18.3,8.9c0.5,0.3,0.8,0.8,0.8,1.3c0,0.6-0.3,1.1-0.8,1.3l-18.3,8.9c-0.2,0.1-0.4,0.2-0.7,0.2S186.8,81.4,186.6,81.3z M187.2,63.7
			L172.4,71l14.9,7.3l14.9-7.3L187.2,63.7z"/>
		<path class="st0" d="M187.2,102c0.2,0,0.5-0.1,0.7-0.2l18.3-8.9c0.5-0.3,0.8-0.8,0.8-1.3V71c0-0.8-0.7-1.5-1.5-1.5
			c-0.8,0-1.5,0.7-1.5,1.5v19.6l-16.8,8.2l-7.5-3.7c-0.7-0.4-1.6-0.1-2,0.7c-0.4,0.7-0.1,1.6,0.7,2l8.2,4
			C186.8,101.9,187,102,187.2,102z"/>
		<path class="st0" d="M168.9,80.5c0.8,0,1.5-0.7,1.5-1.5v-8c0-0.8-0.7-1.5-1.5-1.5c-0.8,0-1.5,0.7-1.5,1.5v8
			C167.4,79.8,168.1,80.5,168.9,80.5z"/>
		<path class="st0" d="M187.2,102c0.8,0,1.5-0.7,1.5-1.5V79.9c0-0.8-0.7-1.5-1.5-1.5s-1.5,0.7-1.5,1.5v20.5
			C185.7,101.3,186.4,102,187.2,102z"/>
	</g>
	<g>
		<path class="st0" d="M19.8,170.6c-0.2,0-0.5-0.1-0.7-0.2l-18.3-8.9c-0.5-0.3-0.8-0.8-0.8-1.3c0-0.6,0.3-1.1,0.8-1.3l18.3-8.9
			c0.4-0.2,0.9-0.2,1.3,0l18.3,8.9c0.5,0.3,0.8,0.8,0.8,1.3c0,0.6-0.3,1.1-0.8,1.3l-18.3,8.9C20.2,170.6,20,170.6,19.8,170.6z
			 M4.9,160.2l14.9,7.3l14.9-7.3l-14.9-7.3L4.9,160.2z"/>
		<path class="st0" d="M19.8,191.1c-0.2,0-0.5-0.1-0.7-0.2L0.8,182c-0.5-0.3-0.8-0.8-0.8-1.3v-20.5c0-0.8,0.7-1.5,1.5-1.5
			c0.8,0,1.5,0.7,1.5,1.5v19.6l16.8,8.2l16.8-8.2v-19.6c0-0.8,0.7-1.5,1.5-1.5c0.8,0,1.5,0.7,1.5,1.5v20.5c0,0.6-0.3,1.1-0.8,1.3
			L20.5,191C20.2,191.1,20,191.1,19.8,191.1z"/>
		<path class="st0" d="M19.8,191.1c-0.8,0-1.5-0.7-1.5-1.5v-20.5c0-0.8,0.7-1.5,1.5-1.5c0.8,0,1.5,0.7,1.5,1.5v20.5
			C21.3,190.5,20.6,191.1,19.8,191.1z"/>
	</g>
	<g>
		<path class="st0" d="M217.9,170.5l-18.3-8.9c-0.5-0.3-0.8-0.8-0.8-1.3c0-0.6,0.3-1.1,0.8-1.3l18.3-8.9c0.4-0.2,0.9-0.2,1.3,0
			l18.3,8.9c0.5,0.3,0.8,0.8,0.8,1.3c0,0.6-0.3,1.1-0.8,1.3l-18.3,8.9c-0.2,0.1-0.4,0.2-0.7,0.2
			C218.4,170.6,218.1,170.6,217.9,170.5z M218.6,152.9l-14.9,7.3l14.9,7.3l14.9-7.3L218.6,152.9z"/>
		<path class="st0" d="M218.6,191.1c0.2,0,0.5-0.1,0.7-0.2l18.3-8.9c0.5-0.3,0.8-0.8,0.8-1.3v-20.5c0-0.8-0.7-1.5-1.5-1.5
			c-0.8,0-1.5,0.7-1.5,1.5v19.6l-16.8,8.2l-16.8-8.2v-19.6c0-0.8-0.7-1.5-1.5-1.5c-0.8,0-1.5,0.7-1.5,1.5v20.5
			c0,0.6,0.3,1.1,0.8,1.3l18.3,8.9C218.1,191.1,218.4,191.1,218.6,191.1z"/>
		<path class="st0" d="M218.6,191.1c0.8,0,1.5-0.7,1.5-1.5v-20.5c0-0.8-0.7-1.5-1.5-1.5c-0.8,0-1.5,0.7-1.5,1.5v20.5
			C217.1,190.5,217.8,191.1,218.6,191.1z"/>
	</g>
	<polygon class="st1" points="119,0 100.7,8.9 100.7,29.5 119,38.4 137.3,29.5 137.3,8.9 	"/>
	<path class="st0" d="M119,39.9c-0.8,0-1.5-0.7-1.5-1.5V17.9c0-0.6,0.3-1.1,0.8-1.3l18.3-8.9c0.7-0.4,1.6-0.1,2,0.7
		c0.4,0.7,0.1,1.6-0.7,2l-17.5,8.5v19.6C120.5,39.2,119.8,39.9,119,39.9z"/>
	<path class="st0" d="M119,19.4c-0.2,0-0.4,0-0.7-0.2L100,10.3c-0.7-0.4-1.1-1.3-0.7-2c0.4-0.7,1.3-1.1,2-0.7l18.3,8.9
		c0.7,0.4,1.1,1.3,0.7,2C120.1,19.1,119.5,19.4,119,19.4z"/>
</g>
<g id="Back_connectors">
	<path class="st0" d="M38.1,161.7c-0.6,0-1.1-0.3-1.3-0.8c-0.4-0.7-0.1-1.6,0.7-2l52.2-25.5c0.7-0.4,1.6-0.1,2,0.7
		c0.4,0.7,0.1,1.6-0.7,2l-52.2,25.5C38.5,161.6,38.3,161.7,38.1,161.7z"/>
	<path class="st0" d="M200.3,161.7c0.6,0,1.1-0.3,1.3-0.8c0.4-0.7,0.1-1.6-0.7-2l-52.2-25.5c-0.7-0.4-1.6-0.1-2,0.7
		c-0.4,0.7-0.1,1.6,0.7,2l52.2,25.5C199.8,161.6,200.1,161.7,200.3,161.7z"/>
</g>
<g id="Secondary_shapes">
	<g>
		<g>
			<path class="st1" d="M34.7,34.5c-0.8,0-1.5-0.7-1.5-1.5v-4.4c0-0.8,0.7-1.5,1.5-1.5c0.8,0,1.5,0.7,1.5,1.5V33
				C36.2,33.8,35.5,34.5,34.7,34.5z"/>
		</g>
		<g>
			<path class="st1" d="M30.3,38.8h-4.4c-0.8,0-1.5-0.7-1.5-1.5c0-0.8,0.7-1.5,1.5-1.5h4.4c0.8,0,1.5,0.7,1.5,1.5
				C31.8,38.1,31.2,38.8,30.3,38.8z"/>
		</g>
		<g>
			<path class="st1" d="M34.7,47.6c-0.8,0-1.5-0.7-1.5-1.5v-4.4c0-0.8,0.7-1.5,1.5-1.5c0.8,0,1.5,0.7,1.5,1.5v4.4
				C36.2,46.9,35.5,47.6,34.7,47.6z"/>
		</g>
		<g>
			<path class="st1" d="M43.4,38.8H39c-0.8,0-1.5-0.7-1.5-1.5c0-0.8,0.7-1.5,1.5-1.5h4.4c0.8,0,1.5,0.7,1.5,1.5
				C44.9,38.1,44.3,38.8,43.4,38.8z"/>
		</g>
	</g>
	<g>
		<g>
			<path class="st1" d="M192.3,208c-0.8,0-1.5-0.7-1.5-1.5v-4.4c0-0.8,0.7-1.5,1.5-1.5c0.8,0,1.5,0.7,1.5,1.5v4.4
				C193.8,207.3,193.1,208,192.3,208z"/>
		</g>
		<g>
			<path class="st1" d="M188,212.4h-4.4c-0.8,0-1.5-0.7-1.5-1.5s0.7-1.5,1.5-1.5h4.4c0.8,0,1.5,0.7,1.5,1.5S188.8,212.4,188,212.4z"
				/>
		</g>
		<g>
			<path class="st1" d="M192.3,221.1c-0.8,0-1.5-0.7-1.5-1.5v-4.4c0-0.8,0.7-1.5,1.5-1.5c0.8,0,1.5,0.7,1.5,1.5v4.4
				C193.8,220.4,193.1,221.1,192.3,221.1z"/>
		</g>
		<g>
			<path class="st1" d="M201,212.4h-4.4c-0.8,0-1.5-0.7-1.5-1.5s0.7-1.5,1.5-1.5h4.4c0.8,0,1.5,0.7,1.5,1.5S201.9,212.4,201,212.4z"
				/>
		</g>
	</g>
	<circle class="st2" cx="119" cy="116" r="45"/>
	<g>
		<path class="st3" d="M99.5,104.7c4-2.4,12.2-7.2,12.2-7.2s8.2,4.7,12.3,7.1c0.1,4.4,0.1,13.8,0.1,13.8s-5,3.3-7.2,4.6
			c1.7,1,5,3,5,3l7.3-4.3l0-20.4l-17.4-10l-17.3,10.1l0,20.4l7.3,4.3c0,0,3.3-2,5-3c-2.2-1.3-7.2-4.6-7.2-4.6S99.4,109.1,99.5,104.7
			z"/>
		<path class="st3" d="M143.5,110.4l-7.3-4.3c0,0-3.3,2-5,3c2.2,1.3,7.2,4.6,7.2,4.6s0,9.3,0,13.8c-4,2.4-12.2,7.2-12.2,7.2l0,0
			c-2.8-1.6-6.7-3.9-9.2-5.3c0,0,0,0,0,0c-1.2-0.7-2.2-1.3-3.1-1.8c-0.1-4.4-0.1-13.8-0.1-13.8s0,0,0,0c0.3-0.2,5-3.3,7.2-4.6
			c-1.7-1-5-3-5-3l-7.3,4.3l0,20.4l3.1,1.8l14.3,8.2l17.3-10l0,0L143.5,110.4z"/>
	</g>
</g>
</svg>
